<mxfile host="Electron" agent="Mozilla/5.0 (Windows NT 10.0; Win64; x64) AppleWebKit/537.36 (KHTML, like Gecko) draw.io/26.2.2 Chrome/134.0.6998.178 Electron/35.1.2 Safari/537.36" version="26.2.2">
  <diagram name="Page-1" id="jIGw76mrGdGd-cAGwO3A">
    <mxGraphModel dx="2041" dy="1871" grid="1" gridSize="10" guides="1" tooltips="1" connect="1" arrows="1" fold="1" page="1" pageScale="1" pageWidth="850" pageHeight="1100" math="0" shadow="0">
      <root>
        <mxCell id="0" />
        <mxCell id="1" parent="0" />
        <mxCell id="rK29gF-hVPczX3JdKgTe-1" value="&lt;font style=&quot;font-size: 16px;&quot;&gt;Client&lt;/font&gt;" style="shape=umlActor;verticalLabelPosition=bottom;verticalAlign=top;html=1;outlineConnect=0;" parent="1" vertex="1">
          <mxGeometry x="24" y="-1081" width="30" height="60" as="geometry" />
        </mxCell>
        <mxCell id="rK29gF-hVPczX3JdKgTe-2" value="" style="endArrow=none;dashed=1;html=1;rounded=0;" parent="1" edge="1">
          <mxGeometry width="50" height="50" relative="1" as="geometry">
            <mxPoint x="40" y="-560" as="sourcePoint" />
            <mxPoint x="40" y="-1000" as="targetPoint" />
          </mxGeometry>
        </mxCell>
        <mxCell id="rK29gF-hVPczX3JdKgTe-3" value="" style="rounded=0;whiteSpace=wrap;html=1;" parent="1" vertex="1">
          <mxGeometry x="331" y="-1080" width="120" height="60" as="geometry" />
        </mxCell>
        <mxCell id="rK29gF-hVPczX3JdKgTe-4" value="&lt;span style=&quot;font-size:12.0pt;line-height:107%;&lt;br/&gt;font-family:&amp;quot;Times New Roman&amp;quot;,serif;mso-fareast-font-family:Calibri;mso-fareast-theme-font:&lt;br/&gt;minor-latin;mso-ansi-language:FR;mso-fareast-language:EN-US;mso-bidi-language:&lt;br/&gt;AR-SA&quot;&gt;Système de paiement&amp;nbsp;&lt;/span&gt;" style="text;html=1;align=center;verticalAlign=middle;whiteSpace=wrap;rounded=0;" parent="1" vertex="1">
          <mxGeometry x="358" y="-1065" width="60" height="30" as="geometry" />
        </mxCell>
        <mxCell id="rK29gF-hVPczX3JdKgTe-5" value="" style="endArrow=none;dashed=1;html=1;rounded=0;" parent="1" edge="1">
          <mxGeometry width="50" height="50" relative="1" as="geometry">
            <mxPoint x="389" y="-560" as="sourcePoint" />
            <mxPoint x="389" y="-1021" as="targetPoint" />
          </mxGeometry>
        </mxCell>
        <mxCell id="rK29gF-hVPczX3JdKgTe-6" value="" style="html=1;points=[[0,0,0,0,5],[0,1,0,0,-5],[1,0,0,0,5],[1,1,0,0,-5]];perimeter=orthogonalPerimeter;outlineConnect=0;targetShapes=umlLifeline;portConstraint=eastwest;newEdgeStyle={&quot;curved&quot;:0,&quot;rounded&quot;:0};" parent="1" vertex="1">
          <mxGeometry x="384" y="-981" width="10" height="52" as="geometry" />
        </mxCell>
        <mxCell id="rK29gF-hVPczX3JdKgTe-7" value="&lt;span style=&quot;line-height: 107%;&quot;&gt;&lt;font style=&quot;font-size: 16px;&quot;&gt;1 : Cliquer Payer&lt;/font&gt;&lt;/span&gt;" style="html=1;verticalAlign=bottom;endArrow=block;curved=0;rounded=0;" parent="1" edge="1">
          <mxGeometry width="80" relative="1" as="geometry">
            <mxPoint x="40" y="-971" as="sourcePoint" />
            <mxPoint x="384" y="-971" as="targetPoint" />
          </mxGeometry>
        </mxCell>
        <mxCell id="rK29gF-hVPczX3JdKgTe-8" value="&lt;span style=&quot;line-height: 107%;&quot;&gt;&lt;font style=&quot;font-size: 16px;&quot;&gt;2 : Afficher le formulaire de paiement&lt;/font&gt;&lt;/span&gt;" style="html=1;verticalAlign=bottom;endArrow=open;dashed=1;endSize=8;curved=0;rounded=0;" parent="1" edge="1">
          <mxGeometry x="0.0035" relative="1" as="geometry">
            <mxPoint x="380" y="-938" as="sourcePoint" />
            <mxPoint x="40" y="-938" as="targetPoint" />
            <mxPoint as="offset" />
          </mxGeometry>
        </mxCell>
        <mxCell id="rK29gF-hVPczX3JdKgTe-9" value="Alt" style="shape=umlFrame;whiteSpace=wrap;html=1;pointerEvents=0;width=99;height=22;" parent="1" vertex="1">
          <mxGeometry x="80" y="-800" width="740" height="193" as="geometry" />
        </mxCell>
        <mxCell id="rK29gF-hVPczX3JdKgTe-12" value="&lt;span style=&quot;line-height: 107%;&quot;&gt;&lt;font style=&quot;font-size: 16px;&quot;&gt;4 : Soumettre le formulaire&lt;/font&gt;&lt;/span&gt;" style="html=1;verticalAlign=bottom;endArrow=block;curved=0;rounded=0;" parent="1" edge="1">
          <mxGeometry x="0.0523" y="6" width="80" relative="1" as="geometry">
            <mxPoint x="40" y="-851" as="sourcePoint" />
            <mxPoint x="384" y="-851" as="targetPoint" />
            <mxPoint as="offset" />
          </mxGeometry>
        </mxCell>
        <mxCell id="rK29gF-hVPczX3JdKgTe-20" value="" style="html=1;points=[[0,0,0,0,5],[0,1,0,0,-5],[1,0,0,0,5],[1,1,0,0,-5]];perimeter=orthogonalPerimeter;outlineConnect=0;targetShapes=umlLifeline;portConstraint=eastwest;newEdgeStyle={&quot;curved&quot;:0,&quot;rounded&quot;:0};" parent="1" vertex="1">
          <mxGeometry x="385" y="-856" width="10" height="53" as="geometry" />
        </mxCell>
        <mxCell id="rK29gF-hVPczX3JdKgTe-21" value="" style="html=1;points=[[0,0,0,0,5],[0,1,0,0,-5],[1,0,0,0,5],[1,1,0,0,-5]];perimeter=orthogonalPerimeter;outlineConnect=0;targetShapes=umlLifeline;portConstraint=eastwest;newEdgeStyle={&quot;curved&quot;:0,&quot;rounded&quot;:0};" parent="1" vertex="1">
          <mxGeometry x="389" y="-848" width="10" height="40" as="geometry" />
        </mxCell>
        <mxCell id="rK29gF-hVPczX3JdKgTe-22" value="&lt;font style=&quot;font-size: 16px;&quot;&gt;5 : Verifier information&lt;/font&gt;" style="html=1;align=left;spacingLeft=2;endArrow=block;rounded=0;edgeStyle=orthogonalEdgeStyle;curved=0;rounded=0;" parent="1" edge="1">
          <mxGeometry relative="1" as="geometry">
            <mxPoint x="396" y="-848" as="sourcePoint" />
            <Array as="points">
              <mxPoint x="426" y="-818" />
            </Array>
            <mxPoint x="401" y="-818" as="targetPoint" />
          </mxGeometry>
        </mxCell>
        <mxCell id="rK29gF-hVPczX3JdKgTe-27" value="&lt;span style=&quot;line-height: 107%;&quot;&gt;&lt;font style=&quot;font-size: 16px;&quot;&gt;3 : Remplir formulaire&lt;/font&gt;&lt;/span&gt;" style="html=1;verticalAlign=bottom;endArrow=block;curved=0;rounded=0;" parent="1" edge="1">
          <mxGeometry x="-0.0033" width="80" relative="1" as="geometry">
            <mxPoint x="40" y="-881" as="sourcePoint" />
            <mxPoint x="384" y="-881" as="targetPoint" />
            <mxPoint as="offset" />
          </mxGeometry>
        </mxCell>
        <mxCell id="rK29gF-hVPczX3JdKgTe-28" value="" style="endArrow=none;dashed=1;html=1;rounded=0;" parent="1" edge="1">
          <mxGeometry width="50" height="50" relative="1" as="geometry">
            <mxPoint x="600" y="-559" as="sourcePoint" />
            <mxPoint x="599" y="-1021" as="targetPoint" />
          </mxGeometry>
        </mxCell>
        <mxCell id="rK29gF-hVPczX3JdKgTe-29" value="" style="rounded=0;whiteSpace=wrap;html=1;" parent="1" vertex="1">
          <mxGeometry x="541" y="-1080" width="120" height="60" as="geometry" />
        </mxCell>
        <mxCell id="rK29gF-hVPczX3JdKgTe-30" value="&lt;span style=&quot;font-size:12.0pt;line-height:107%;&lt;br/&gt;font-family:&amp;quot;Times New Roman&amp;quot;,serif;mso-fareast-font-family:Calibri;mso-fareast-theme-font:&lt;br/&gt;minor-latin;mso-ansi-language:FR;mso-fareast-language:EN-US;mso-bidi-language:&lt;br/&gt;AR-SA&quot;&gt;Système&amp;nbsp;&amp;nbsp;&lt;/span&gt;" style="text;html=1;align=center;verticalAlign=middle;whiteSpace=wrap;rounded=0;" parent="1" vertex="1">
          <mxGeometry x="570" y="-1063" width="60" height="30" as="geometry" />
        </mxCell>
        <mxCell id="rK29gF-hVPczX3JdKgTe-33" value="" style="endArrow=none;dashed=1;html=1;rounded=0;" parent="1" edge="1">
          <mxGeometry width="50" height="50" relative="1" as="geometry">
            <mxPoint x="79" y="-691" as="sourcePoint" />
            <mxPoint x="820" y="-694" as="targetPoint" />
          </mxGeometry>
        </mxCell>
        <mxCell id="rK29gF-hVPczX3JdKgTe-34" value="&lt;font style=&quot;font-size: 16px;&quot;&gt;&amp;nbsp; &amp;nbsp; &amp;nbsp; &amp;nbsp; &amp;nbsp; &amp;nbsp; &amp;nbsp; &amp;nbsp; &amp;nbsp; &amp;nbsp; &amp;nbsp; &amp;nbsp; &amp;nbsp; &amp;nbsp; &amp;nbsp; &amp;nbsp; &amp;nbsp; &amp;nbsp; &amp;nbsp; &amp;nbsp; &amp;nbsp; &amp;nbsp; &amp;nbsp; &amp;nbsp; &amp;nbsp; [&lt;span style=&quot;text-align: justify; text-indent: 35.4pt; background-color: transparent; color: light-dark(rgb(0, 0, 0), rgb(255, 255, 255));&quot;&gt;&lt;span style=&quot;line-height: 150%; font-family: &amp;quot;Times New Roman&amp;quot;, serif;&quot;&gt;&amp;nbsp;&lt;/span&gt;&lt;/span&gt;&lt;span style=&quot;text-align: justify; text-indent: 35.4pt; background-color: transparent; color: light-dark(rgb(0, 0, 0), rgb(255, 255, 255));&quot;&gt;&lt;span style=&quot;line-height: 150%; font-family: &amp;quot;Times New Roman&amp;quot;, serif;&quot;&gt;Vérification = OK&lt;/span&gt;&lt;/span&gt;]&lt;/font&gt;" style="text;html=1;align=center;verticalAlign=middle;resizable=0;points=[];autosize=1;strokeColor=none;fillColor=none;" parent="1" vertex="1">
          <mxGeometry x="10" y="-790" width="380" height="40" as="geometry" />
        </mxCell>
        <mxCell id="rK29gF-hVPczX3JdKgTe-35" value="&lt;font style=&quot;font-size: 16px;&quot;&gt;&amp;nbsp; &amp;nbsp; &amp;nbsp; &amp;nbsp; &amp;nbsp; &amp;nbsp; &amp;nbsp; &amp;nbsp; &amp;nbsp; &amp;nbsp; &amp;nbsp; &amp;nbsp; &amp;nbsp; &amp;nbsp; &amp;nbsp; &amp;nbsp; &amp;nbsp; &amp;nbsp; &amp;nbsp; &amp;nbsp; &amp;nbsp; &amp;nbsp; &amp;nbsp; &amp;nbsp; &amp;nbsp; [&lt;span style=&quot;text-align: justify; text-indent: 35.4pt; background-color: transparent; color: light-dark(rgb(0, 0, 0), rgb(255, 255, 255));&quot;&gt;&lt;span style=&quot;line-height: 150%; font-family: &amp;quot;Times New Roman&amp;quot;, serif;&quot;&gt;&amp;nbsp;&lt;/span&gt;&lt;/span&gt;&lt;span style=&quot;text-align: justify; text-indent: 35.4pt; background-color: transparent; color: light-dark(rgb(0, 0, 0), rgb(255, 255, 255));&quot;&gt;&lt;span style=&quot;line-height: 150%; font-family: &amp;quot;Times New Roman&amp;quot;, serif;&quot;&gt;Vérification = OK&lt;/span&gt;&lt;/span&gt;]&lt;/font&gt;" style="text;html=1;align=center;verticalAlign=middle;resizable=0;points=[];autosize=1;strokeColor=none;fillColor=none;" parent="1" vertex="1">
          <mxGeometry x="-9" y="-680" width="380" height="40" as="geometry" />
        </mxCell>
        <mxCell id="rK29gF-hVPczX3JdKgTe-39" value="" style="endArrow=none;html=1;rounded=0;" parent="1" edge="1">
          <mxGeometry width="50" height="50" relative="1" as="geometry">
            <mxPoint x="332" y="-668" as="sourcePoint" />
            <mxPoint x="352" y="-668" as="targetPoint" />
          </mxGeometry>
        </mxCell>
        <mxCell id="rK29gF-hVPczX3JdKgTe-46" value="&lt;span style=&quot;font-size: 15px;&quot;&gt;7 : Enregistrer paiement&lt;/span&gt;" style="html=1;align=left;spacingLeft=2;endArrow=block;rounded=0;edgeStyle=orthogonalEdgeStyle;curved=0;rounded=0;" parent="1" edge="1">
          <mxGeometry relative="1" as="geometry">
            <mxPoint x="604" y="-740" as="sourcePoint" />
            <Array as="points">
              <mxPoint x="634" y="-710" />
            </Array>
            <mxPoint x="609" y="-710" as="targetPoint" />
          </mxGeometry>
        </mxCell>
        <mxCell id="rK29gF-hVPczX3JdKgTe-47" value="" style="html=1;points=[[0,0,0,0,5],[0,1,0,0,-5],[1,0,0,0,5],[1,1,0,0,-5]];perimeter=orthogonalPerimeter;outlineConnect=0;targetShapes=umlLifeline;portConstraint=eastwest;newEdgeStyle={&quot;curved&quot;:0,&quot;rounded&quot;:0};" parent="1" vertex="1">
          <mxGeometry x="594" y="-761" width="10" height="52" as="geometry" />
        </mxCell>
        <mxCell id="rK29gF-hVPczX3JdKgTe-48" value="&lt;font style=&quot;font-size: 15px;&quot;&gt;6 : Demander enregistrement&lt;/font&gt;" style="html=1;verticalAlign=bottom;endArrow=open;dashed=1;endSize=8;curved=0;rounded=0;" parent="1" edge="1">
          <mxGeometry relative="1" as="geometry">
            <mxPoint x="393" y="-748" as="sourcePoint" />
            <mxPoint x="589" y="-748" as="targetPoint" />
          </mxGeometry>
        </mxCell>
        <mxCell id="gMiPVDIZjXlofbx4zJsf-2" value="&lt;span style=&quot;font-size: 16px;&quot;&gt;8 :&amp;nbsp;&lt;/span&gt;&lt;span style=&quot;font-size:12.0pt;line-height:107%;&lt;br/&gt;font-family:&amp;quot;Times New Roman&amp;quot;,serif;mso-fareast-font-family:Calibri;mso-fareast-theme-font:&lt;br/&gt;minor-latin;mso-ansi-language:FR;mso-fareast-language:EN-US;mso-bidi-language:&lt;br/&gt;AR-SA&quot;&gt;Délivrer un reçu&lt;/span&gt;" style="html=1;verticalAlign=bottom;endArrow=open;dashed=1;endSize=8;curved=0;rounded=0;" edge="1" parent="1">
          <mxGeometry x="0.0054" relative="1" as="geometry">
            <mxPoint x="390" y="-722" as="sourcePoint" />
            <mxPoint x="80" y="-722" as="targetPoint" />
            <mxPoint as="offset" />
          </mxGeometry>
        </mxCell>
        <mxCell id="gMiPVDIZjXlofbx4zJsf-3" value="&lt;span style=&quot;font-size: 16px;&quot;&gt;9 : Afficher message erreur&lt;/span&gt;" style="html=1;verticalAlign=bottom;endArrow=open;dashed=1;endSize=8;curved=0;rounded=0;" edge="1" parent="1">
          <mxGeometry x="0.0035" relative="1" as="geometry">
            <mxPoint x="389" y="-624" as="sourcePoint" />
            <mxPoint x="79" y="-624" as="targetPoint" />
            <mxPoint as="offset" />
          </mxGeometry>
        </mxCell>
      </root>
    </mxGraphModel>
  </diagram>
</mxfile>
